  0
SECTION
  2
HEADER
  9
$ACADVER
  1
AC1009
  9
$INSBASE
 10
0.0
 20
0.0
 30
0.0
  9
$EXTMIN
 10
-3.6426338151191731
 20
250.91474736398641
 30
0.0
  9
$EXTMAX
 10
85.934221693110885
 20
324.03355086198189
 30
0.0
  9
$LIMMIN
 10
0.0
 20
0.0
  9
$LIMMAX
 10
297.0
 20
210.0
  9
$ORTHOMODE
 70
     1
  9
$REGENMODE
 70
     1
  9
$FILLMODE
 70
     1
  9
$QTEXTMODE
 70
     0
  9
$MIRRTEXT
 70
     1
  9
$DRAGMODE
 70
     2
  9
$LTSCALE
 40
1.0
  9
$OSMODE
 70
   183
  9
$ATTMODE
 70
     1
  9
$TEXTSIZE
 40
8.0
  9
$TRACEWID
 40
1.0
  9
$TEXTSTYLE
  7
STANDARD
  9
$CLAYER
  8
0
  9
$CELTYPE
  6
CONTINUOUS
  9
$CECOLOR
 62
     7
  9
$DIMSCALE
 40
1.0
  9
$DIMASZ
 40
3.0
  9
$DIMEXO
 40
1.0
  9
$DIMDLI
 40
0.0
  9
$DIMRND
 40
0.0
  9
$DIMDLE
 40
0.0
  9
$DIMEXE
 40
1.0
  9
$DIMTP
 40
0.0
  9
$DIMTM
 40
0.0
  9
$DIMTXT
 40
3.2000000000000002
  9
$DIMCEN
 40
0.0
  9
$DIMTSZ
 40
0.0
  9
$DIMTOL
 70
     0
  9
$DIMLIM
 70
     0
  9
$DIMTIH
 70
     0
  9
$DIMTOH
 70
     0
  9
$DIMSE1
 70
     0
  9
$DIMSE2
 70
     0
  9
$DIMTAD
 70
     1
  9
$DIMZIN
 70
     8
  9
$DIMBLK
  1

  9
$DIMASO
 70
     1
  9
$DIMSHO
 70
     1
  9
$DIMPOST
  1

  9
$DIMAPOST
  1

  9
$DIMALT
 70
     0
  9
$DIMALTD
 70
     2
  9
$DIMALTF
 40
0.04
  9
$DIMLFAC
 40
1.0
  9
$DIMTOFL
 70
     1
  9
$DIMTVP
 40
1.0
  9
$DIMTIX
 70
     1
  9
$DIMSOXD
 70
     0
  9
$DIMSAH
 70
     0
  9
$DIMBLK1
  1

  9
$DIMBLK2
  1

  9
$DIMSTYLE
  2
MISUMI
  9
$DIMCLRD
 70
     0
  9
$DIMCLRE
 70
     0
  9
$DIMCLRT
 70
     0
  9
$DIMTFAC
 40
0.6
  9
$DIMGAP
 40
1.0
  9
$LUNITS
 70
     2
  9
$LUPREC
 70
     2
  9
$SKETCHINC
 40
1.0
  9
$FILLETRAD
 40
10.0
  9
$AUNITS
 70
     0
  9
$AUPREC
 70
     0
  9
$MENU
  1
acad
  9
$ELEVATION
 40
0.0
  9
$PELEVATION
 40
0.0
  9
$THICKNESS
 40
0.0
  9
$LIMCHECK
 70
     0
  9
$BLIPMODE
 70
     0
  9
$CHAMFERA
 40
0.0
  9
$CHAMFERB
 40
0.0
  9
$SKPOLY
 70
     0
  9
$TDCREATE
 40
2451466.6344030439
  9
$TDUPDATE
 40
2454845.7138128239
  9
$TDINDWG
 40
0.326731412
  9
$TDUSRTIMER
 40
0.3267223032
  9
$USRTIMER
 70
     1
  9
$ANGBASE
 50
0.0
  9
$ANGDIR
 70
     0
  9
$PDMODE
 70
    64
  9
$PDSIZE
 40
0.0
  9
$PLINEWID
 40
0.0
  9
$COORDS
 70
     1
  9
$SPLFRAME
 70
     0
  9
$SPLINETYPE
 70
     6
  9
$SPLINESEGS
 70
     8
  9
$ATTDIA
 70
     0
  9
$ATTREQ
 70
     1
  9
$HANDLING
 70
     1
  9
$HANDSEED
  5
30B7
  9
$SURFTAB1
 70
     6
  9
$SURFTAB2
 70
     6
  9
$SURFTYPE
 70
     6
  9
$SURFU
 70
     6
  9
$SURFV
 70
     6
  9
$UCSNAME
  2

  9
$UCSORG
 10
0.0
 20
0.0
 30
0.0
  9
$UCSXDIR
 10
1.0
 20
0.0
 30
0.0
  9
$UCSYDIR
 10
0.0
 20
1.0
 30
0.0
  9
$PUCSNAME
  2

  9
$PUCSORG
 10
0.0
 20
0.0
 30
0.0
  9
$PUCSXDIR
 10
1.0
 20
0.0
 30
0.0
  9
$PUCSYDIR
 10
0.0
 20
1.0
 30
0.0
  9
$USERI1
 70
     0
  9
$USERI2
 70
     0
  9
$USERI3
 70
     0
  9
$USERI4
 70
     0
  9
$USERI5
 70
     0
  9
$USERR1
 40
0.0
  9
$USERR2
 40
0.0
  9
$USERR3
 40
0.0
  9
$USERR4
 40
0.0
  9
$USERR5
 40
0.0
  9
$WORLDVIEW
 70
     1
  9
$SHADEDGE
 70
     3
  9
$SHADEDIF
 70
    70
  9
$TILEMODE
 70
     1
  9
$MAXACTVP
 70
    16
  9
$PLIMCHECK
 70
     0
  9
$PEXTMIN
 10
1.122749993181599
 20
0.7804166500962615
 30
0.0
  9
$PEXTMAX
 10
10.104749938634431
 20
7.0237498508663601
 30
0.0
  9
$PLIMMIN
 10
0.9372413175103272
 20
0.5951149760934631
  9
$PLIMMAX
 10
10.290258601155029
 20
7.2091676235563318
  9
$UNITMODE
 70
     0
  9
$VISRETAIN
 70
     0
  9
$PLINEGEN
 70
     0
  9
$PSLTSCALE
 70
     0
  0
ENDSEC
  0
SECTION
  2
TABLES
  0
TABLE
  2
VPORT
 70
     1
  0
VPORT
  2
*ACTIVE
 70
     0
 10
0.0
 20
0.0
 11
1.0
 21
1.0
 12
42.334771136310941
 22
287.47351766635649
 13
0.0
 23
0.0
 14
10.0
 24
10.0
 15
0.0
 25
0.0
 16
0.0
 26
0.0
 36
1.0
 17
0.0
 27
0.0
 37
0.0
 40
73.701601109481174
 41
1.5695708712613781
 42
50.0
 43
0.0
 44
0.0
 50
0.0
 51
0.0
 71
     0
 72
   100
 73
     1
 74
     0
 75
     0
 76
     0
 77
     0
 78
     1
  0
ENDTAB
  0
TABLE
  2
LTYPE
 70
     2
  0
LTYPE
  2
CONTINUOUS
 70
     0
  3
Solid line
 72
    65
 73
     0
 40
0.0
  0
LTYPE
  2
CENTER
 70
     0
  3
____ _ ____ _ ____ _ ____ _ ____ _ ____ _ ____
 72
    65
 73
     4
 40
17.5
 49
13.0
 49
-1.5
 49
1.5
 49
-1.5
  0
ENDTAB
  0
TABLE
  2
LAYER
 70
     3
  0
LAYER
  2
0
 70
     0
 62
     7
  6
CONTINUOUS
  0
LAYER
  2
CENTER
 70
     0
 62
     1
  6
CENTER
  0
LAYER
  2
DEFPOINTS
 70
     0
 62
     7
  6
CONTINUOUS
  0
ENDTAB
  0
TABLE
  2
STYLE
 70
     1
  0
STYLE
  2
STANDARD
 70
     0
 40
0.0
 41
1.0
 50
0.0
 71
     0
 42
8.0
  3
txt.shx
  4
@extfont2.shx
  0
ENDTAB
  0
TABLE
  2
VIEW
 70
     0
  0
ENDTAB
  0
TABLE
  2
UCS
 70
     0
  0
ENDTAB
  0
TABLE
  2
APPID
 70
     7
  0
APPID
  2
ACAD
 70
     0
  0
APPID
  2
ACAECLAYERSTANDARD
 70
     0
  0
APPID
  2
ACAD_EXEMPT_FROM_CAD_STANDARDS
 70
     0
  0
APPID
  2
ACAD_PSEXT
 70
     0
  0
APPID
  2
ACAD_MLEADERVER
 70
     0
  0
APPID
  2
ACAD_DSTYLE_DIMRADIAL_EXTENSION
 70
     0
  0
APPID
  2
ACAD_DSTYLE_DIMFLIPARROW_W
 70
     0
  0
ENDTAB
  0
TABLE
  2
DIMSTYLE
 70
     2
  0
DIMSTYLE
  2
MISUMI
 70
     0
  3

  4

  5

  6

  7

 40
1.0
 41
3.0
 42
1.0
 43
0.0
 44
1.0
 45
0.0
 46
0.0
 47
0.0
 48
0.0
140
3.2000000000000002
141
0.0
142
0.0
143
0.04
144
1.0
145
1.0
146
0.6
147
1.0
 71
     0
 72
     0
 73
     0
 74
     0
 75
     0
 76
     0
 77
     1
 78
     8
170
     0
171
     2
172
     1
173
     0
174
     1
175
     0
176
     0
177
     0
178
     0
  0
DIMSTYLE
  2
STANDARD
 70
     0
  3

  4

  5

  6

  7

 40
1.0
 41
0.18
 42
0.0625
 43
0.38
 44
0.18
 45
0.0
 46
0.0
 47
0.0
 48
0.0
140
0.18
141
0.09
142
0.0
143
25.399999999999999
144
1.0
145
0.0
146
1.0
147
0.09
 71
     0
 72
     0
 73
     1
 74
     1
 75
     0
 76
     0
 77
     0
 78
     0
170
     0
171
     2
172
     0
173
     0
174
     0
175
     0
176
     0
177
     0
178
     0
  0
ENDTAB
  0
ENDSEC
  0
SECTION
  2
BLOCKS
  0
BLOCK
  8
0
  2
$MODEL_SPACE
 70
     0
 10
0.0
 20
0.0
 30
0.0
  3
$MODEL_SPACE
  1

  0
ENDBLK
  5
D8D
  8
0
  0
BLOCK
 67
     1
  8
0
  2
$PAPER_SPACE
 70
     0
 10
0.0
 20
0.0
 30
0.0
  3
$PAPER_SPACE
  1

  0
ENDBLK
  5
D89
 67
     1
  8
0
  0
ENDSEC
  0
SECTION
  2
ENTITIES
  0
ARC
  5
1529
  8
0
  6
CONTINUOUS
 62
     7
 10
63.534228693110776
 20
310.43355486198192
 30
0.0
 40
0.4
 50
90.0
 51
180.0
  0
ARC
  5
152A
  8
0
  6
CONTINUOUS
 62
     7
 10
63.534225693110749
 20
301.63355786198179
 30
0.0
 40
0.4
 50
180.0
 51
270.0
  0
ARC
  5
152B
  8
0
  6
CONTINUOUS
 62
     7
 10
54.934229693110758
 20
293.03355886198187
 30
0.0
 40
2.0
 50
180.0
 51
270.0
  0
LINE
  5
152C
  8
0
  6
CONTINUOUS
 62
     7
 10
52.93422969311078
 20
301.63355786198179
 30
0.0
 11
52.93422969311078
 21
293.03355886198187
 31
0.0
  0
LINE
  5
152D
  8
0
  6
CONTINUOUS
 62
     7
 10
59.684225693110761
 20
293.03355886198187
 30
0.0
 11
59.684225693110761
 21
296.36933236198189
 31
0.0
  0
LINE
  5
152E
  8
0
  6
CONTINUOUS
 62
     7
 10
63.534228693110776
 20
291.03355886198187
 30
0.0
 11
54.934229693110758
 21
291.03355886198187
 31
0.0
  0
LINE
  5
152F
  8
0
  6
CONTINUOUS
 62
     7
 10
63.534228693110776
 20
293.03355886198187
 30
0.0
 11
59.684225693110761
 21
293.03355886198187
 31
0.0
  0
LINE
  5
1530
  8
0
  6
CONTINUOUS
 62
     7
 10
63.934228693110803
 20
292.6335588619819
 30
0.0
 11
63.934228693110803
 21
291.43355886198179
 31
0.0
  0
LINE
  5
1531
  8
0
  6
CONTINUOUS
 62
     7
 10
54.934229693110758
 20
297.78355486198188
 30
0.0
 11
58.27001969311074
 21
297.78355486198188
 31
0.0
  0
LINE
  5
1532
  8
0
  6
CONTINUOUS
 62
     7
 10
61.934225693110761
 20
301.44776036198192
 30
0.0
 11
58.27001969311074
 21
297.78355486198188
 31
0.0
  0
LINE
  5
1533
  8
0
  6
CONTINUOUS
 62
     7
 10
63.348447193110751
 20
300.03355486198188
 30
0.0
 11
59.684225693110761
 21
296.36933236198189
 31
0.0
  0
LINE
  5
1534
  8
0
  6
CONTINUOUS
 62
     7
 10
54.934229693110758
 20
301.63355786198179
 30
0.0
 11
54.934229693110758
 21
297.78355486198188
 31
0.0
  0
LINE
  5
1535
  8
0
  6
CONTINUOUS
 62
     7
 10
53.334229693110792
 20
302.03355786198188
 30
0.0
 11
54.534229693110767
 21
302.03355786198188
 31
0.0
  0
ARC
  5
1536
  8
0
  6
CONTINUOUS
 62
     7
 10
63.534228693110776
 20
291.43355886198179
 30
0.0
 40
0.4
 50
270.0
 51
0.0
  0
ARC
  5
1537
  8
0
  6
CONTINUOUS
 62
     7
 10
63.534228693110776
 20
292.6335588619819
 30
0.0
 40
0.4
 50
0.0
 51
90.0
  0
ARC
  5
1538
  8
0
  6
CONTINUOUS
 62
     7
 10
54.534229693110767
 20
301.63355786198179
 30
0.0
 40
0.4
 50
0.0
 51
90.0
  0
ARC
  5
1539
  8
0
  6
CONTINUOUS
 62
     7
 10
53.334229693110792
 20
301.63355786198179
 30
0.0
 40
0.4
 50
90.0
 51
180.0
  0
LINE
  5
153A
  8
0
  6
CONTINUOUS
 62
     7
 10
62.234225693110787
 20
306.03355386198189
 30
0.0
 11
62.0012131931108
 21
305.62996386198188
 31
0.0
  0
LINE
  5
153B
  8
0
  6
CONTINUOUS
 62
     7
 10
61.934225693110761
 20
301.44776036198192
 30
0.0
 11
61.934225693110761
 21
303.53355486198188
 31
0.0
  0
LINE
  5
153C
  8
0
  6
CONTINUOUS
 62
     7
 10
62.0012131931108
 20
305.12996386198188
 30
0.0
 11
62.183249193110782
 21
304.81466836198189
 31
0.0
  0
LINE
  5
153D
  8
0
  6
CONTINUOUS
 62
     7
 10
62.183249193110782
 20
304.81466836198189
 30
0.0
 11
61.934225693110761
 21
303.53355486198188
 31
0.0
  0
ARC
  5
153E
  8
0
  6
CONTINUOUS
 62
     7
 10
62.434225693110761
 20
305.37996386198188
 30
0.0
 40
0.5
 50
149.99999999999989
 51
210.0
  0
LINE
  5
153F
  8
0
  6
CONTINUOUS
 62
     7
 10
67.530636693110779
 20
300.10054186198192
 30
0.0
 11
67.934226693110745
 21
300.3335548619819
 31
0.0
  0
LINE
  5
1540
  8
0
  6
CONTINUOUS
 62
     7
 10
63.348447193110751
 20
300.03355486198188
 30
0.0
 11
65.434225693110761
 21
300.03355486198188
 31
0.0
  0
LINE
  5
1541
  8
0
  6
CONTINUOUS
 62
     7
 10
65.434225693110761
 20
300.03355486198188
 30
0.0
 11
66.715340693110775
 21
300.28257836198179
 31
0.0
  0
ARC
  5
1542
  8
0
  6
CONTINUOUS
 62
     7
 10
67.280636693110779
 20
300.53355486198188
 30
0.0
 40
0.5
 50
239.99999999999869
 51
300.0
  0
LINE
  5
1543
  8
0
  6
CONTINUOUS
 62
     7
 10
66.715340693110775
 20
300.28257836198179
 30
0.0
 11
67.030636693110765
 21
300.10054186198192
 31
0.0
  0
ARC
  5
1544
  8
0
  6
CONTINUOUS
 62
     7
 10
67.934225693110761
 20
306.03355486198188
 30
0.0
 40
3.399999999999999
 50
253.17355099999989
 51
286.82644899999991
  0
LINE
  5
1545
  8
0
  6
CONTINUOUS
 62
     7
 10
63.134225693110778
 20
301.63355786198179
 30
0.0
 11
63.134225693110778
 21
303.37949236198187
 31
0.0
  0
LINE
  5
1546
  8
0
  6
CONTINUOUS
 62
     7
 10
63.534225693110749
 20
301.23355786198192
 30
0.0
 11
65.28017869311077
 21
301.23355786198192
 31
0.0
  0
LINE
  5
1547
  8
0
  6
CONTINUOUS
 62
     7
 10
66.434225693110761
 20
301.78012986198189
 30
0.0
 11
66.434225693110761
 21
302.39624786198181
 31
0.0
  0
ARC
  5
1548
  8
0
  6
CONTINUOUS
 62
     7
 10
66.834225693110767
 20
302.39624786198181
 30
0.0
 40
0.4
 50
73.17355100000006
 51
180.0
  0
LINE
  5
1549
  8
0
  6
CONTINUOUS
 62
     7
 10
65.356502193110785
 20
301.2409068619819
 30
0.0
 11
66.110549193110785
 21
301.38747886198189
 31
0.0
  0
ARC
  5
154A
  8
0
  6
CONTINUOUS
 62
     7
 10
66.034225693110756
 20
301.78012986198189
 30
0.0
 40
0.4
 50
281.00000000000102
 51
0.0
  0
ARC
  5
154B
  8
0
  6
CONTINUOUS
 62
     7
 10
65.28017869311077
 20
301.63355786198179
 30
0.0
 40
0.4
 50
270.0
 51
281.00000000000102
  0
LINE
  5
154C
  8
0
  6
CONTINUOUS
 62
     7
 10
63.680800693110761
 20
304.53355486198188
 30
0.0
 11
64.296919193110767
 21
304.53355486198188
 31
0.0
  0
ARC
  5
154D
  8
0
  6
CONTINUOUS
 62
     7
 10
64.296919193110767
 20
304.93355486198192
 30
0.0
 40
0.4
 50
270.0
 51
16.826448999999791
  0
LINE
  5
154E
  8
0
  6
CONTINUOUS
 62
     7
 10
63.141574693110783
 20
303.45581586198188
 30
0.0
 11
63.288149693110739
 21
304.20987836198179
 31
0.0
  0
ARC
  5
154F
  8
0
  6
CONTINUOUS
 62
     7
 10
63.680800693110761
 20
304.13355486198191
 30
0.0
 40
0.4
 50
90.0
 51
169.00000000000091
  0
ARC
  5
1550
  8
0
  6
CONTINUOUS
 62
     7
 10
63.534225693110749
 20
303.37949236198187
 30
0.0
 40
0.4
 50
169.00000000000091
 51
180.0
  0
ARC
  5
1551
  8
0
  6
CONTINUOUS
 62
     7
 10
72.33422269311076
 20
301.63355486198191
 30
0.0
 40
0.4
 50
270.0
 51
0.0
  0
ARC
  5
1552
  8
0
  6
CONTINUOUS
 62
     7
 10
80.934221693110743
 20
293.03355886198187
 30
0.0
 40
2.0
 50
270.0
 51
0.0
  0
LINE
  5
1553
  8
0
  6
CONTINUOUS
 62
     7
 10
72.33422269311076
 20
291.03355886198187
 30
0.0
 11
80.934221693110743
 21
291.03355886198187
 31
0.0
  0
LINE
  5
1554
  8
0
  6
CONTINUOUS
 62
     7
 10
80.934221693110743
 20
297.78355486198188
 30
0.0
 11
77.598448193110755
 21
297.78355486198188
 31
0.0
  0
LINE
  5
1555
  8
0
  6
CONTINUOUS
 62
     7
 10
82.934221693110757
 20
301.63355786198179
 30
0.0
 11
82.934221693110757
 21
293.03355886198187
 31
0.0
  0
LINE
  5
1556
  8
0
  6
CONTINUOUS
 62
     7
 10
80.934221693110743
 20
301.63355786198179
 30
0.0
 11
80.934221693110743
 21
297.78355486198188
 31
0.0
  0
LINE
  5
1557
  8
0
  6
CONTINUOUS
 62
     7
 10
81.334221693110763
 20
302.03355786198188
 30
0.0
 11
82.534221693110752
 21
302.03355786198188
 31
0.0
  0
LINE
  5
1558
  8
0
  6
CONTINUOUS
 62
     7
 10
76.184225693110761
 20
293.03355886198187
 30
0.0
 11
76.184225693110761
 21
296.3693488619819
 31
0.0
  0
LINE
  5
1559
  8
0
  6
CONTINUOUS
 62
     7
 10
72.520020193110753
 20
300.03355486198188
 30
0.0
 11
76.184225693110761
 21
296.3693488619819
 31
0.0
  0
LINE
  5
155A
  8
0
  6
CONTINUOUS
 62
     7
 10
73.934225693110761
 20
301.44777636198188
 30
0.0
 11
77.598448193110755
 21
297.78355486198188
 31
0.0
  0
LINE
  5
155B
  8
0
  6
CONTINUOUS
 62
     7
 10
72.33422269311076
 20
293.03355886198187
 30
0.0
 11
76.184225693110761
 21
293.03355886198187
 31
0.0
  0
LINE
  5
155C
  8
0
  6
CONTINUOUS
 62
     7
 10
71.934222693110755
 20
291.43355886198179
 30
0.0
 11
71.934222693110755
 21
292.6335588619819
 31
0.0
  0
ARC
  5
155D
  8
0
  6
CONTINUOUS
 62
     7
 10
82.534221693110752
 20
301.63355786198179
 30
0.0
 40
0.4
 50
0.0
 51
90.0
  0
ARC
  5
155E
  8
0
  6
CONTINUOUS
 62
     7
 10
81.334221693110763
 20
301.63355786198179
 30
0.0
 40
0.4
 50
90.0
 51
180.0
  0
ARC
  5
155F
  8
0
  6
CONTINUOUS
 62
     7
 10
72.33422269311076
 20
292.6335588619819
 30
0.0
 40
0.4
 50
90.0
 51
180.0
  0
ARC
  5
1560
  8
0
  6
CONTINUOUS
 62
     7
 10
72.33422269311076
 20
291.43355886198179
 30
0.0
 40
0.4
 50
180.0
 51
270.0
  0
LINE
  5
1561
  8
0
  6
CONTINUOUS
 62
     7
 10
67.934226693110745
 20
300.3335548619819
 30
0.0
 11
68.337816693110781
 21
300.10054186198192
 31
0.0
  0
LINE
  5
1562
  8
0
  6
CONTINUOUS
 62
     7
 10
72.520020193110753
 20
300.03355486198188
 30
0.0
 11
70.434225693110761
 21
300.03355486198188
 31
0.0
  0
LINE
  5
1563
  8
0
  6
CONTINUOUS
 62
     7
 10
68.837816693110753
 20
300.10054186198192
 30
0.0
 11
69.153112193110744
 21
300.28257786198191
 31
0.0
  0
LINE
  5
1564
  8
0
  6
CONTINUOUS
 62
     7
 10
69.153112193110744
 20
300.28257786198191
 30
0.0
 11
70.434225693110761
 21
300.03355486198188
 31
0.0
  0
ARC
  5
1565
  8
0
  6
CONTINUOUS
 62
     7
 10
68.587816693110767
 20
300.53355486198188
 30
0.0
 40
0.5
 50
239.99999999999869
 51
300.0
  0
LINE
  5
1566
  8
0
  6
CONTINUOUS
 62
     7
 10
73.867238193110765
 20
305.62996586198187
 30
0.0
 11
73.634225693110764
 21
306.03355586198188
 31
0.0
  0
LINE
  5
1567
  8
0
  6
CONTINUOUS
 62
     7
 10
73.934225693110761
 20
301.44777636198188
 30
0.0
 11
73.934225693110761
 21
303.53355486198188
 31
0.0
  0
LINE
  5
1568
  8
0
  6
CONTINUOUS
 62
     7
 10
73.934225693110761
 20
303.53355486198188
 30
0.0
 11
73.685202193110769
 21
304.81466986198188
 31
0.0
  0
ARC
  5
1569
  8
0
  6
CONTINUOUS
 62
     7
 10
73.434225693110761
 20
305.37996586198187
 30
0.0
 40
0.5
 50
330.0
 51
30.000000000000011
  0
LINE
  5
156A
  8
0
  6
CONTINUOUS
 62
     7
 10
73.685202193110769
 20
304.81466986198188
 30
0.0
 11
73.867238193110765
 21
305.12996586198187
 31
0.0
  0
ARC
  5
156B
  8
0
  6
CONTINUOUS
 62
     7
 10
67.934225693110761
 20
306.03355486198188
 30
0.0
 40
3.399999999999999
 50
343.1735510000002
 51
16.826448999999791
  0
LINE
  5
156C
  8
0
  6
CONTINUOUS
 62
     7
 10
72.33422269311076
 20
301.23355486198187
 30
0.0
 11
70.588288193110756
 21
301.23355486198187
 31
0.0
  0
LINE
  5
156D
  8
0
  6
CONTINUOUS
 62
     7
 10
72.734222693110723
 20
301.63355486198191
 30
0.0
 11
72.734222693110723
 21
303.37950786198178
 31
0.0
  0
LINE
  5
156E
  8
0
  6
CONTINUOUS
 62
     7
 10
72.187650693110754
 20
304.53355486198188
 30
0.0
 11
71.571532193110755
 21
304.53355486198188
 31
0.0
  0
ARC
  5
156F
  8
0
  6
CONTINUOUS
 62
     7
 10
71.571532193110755
 20
304.93355486198192
 30
0.0
 40
0.4
 50
163.1735510000002
 51
270.0
  0
LINE
  5
1570
  8
0
  6
CONTINUOUS
 62
     7
 10
72.726873693110761
 20
303.45583136198189
 30
0.0
 11
72.580301693110755
 21
304.20987836198179
 31
0.0
  0
ARC
  5
1571
  8
0
  6
CONTINUOUS
 62
     7
 10
72.187650693110754
 20
304.13355486198191
 30
0.0
 40
0.4
 50
11.000000000002361
 51
90.0
  0
ARC
  5
1572
  8
0
  6
CONTINUOUS
 62
     7
 10
72.33422269311076
 20
303.37950786198178
 30
0.0
 40
0.4
 50
0.0
 51
11.000000000002361
  0
LINE
  5
1573
  8
0
  6
CONTINUOUS
 62
     7
 10
69.434225693110761
 20
301.78012986198189
 30
0.0
 11
69.434225693110761
 21
302.39624786198181
 31
0.0
  0
ARC
  5
1574
  8
0
  6
CONTINUOUS
 62
     7
 10
69.034225693110784
 20
302.39624786198181
 30
0.0
 40
0.4
 50
0.0
 51
106.8264489999998
  0
LINE
  5
1575
  8
0
  6
CONTINUOUS
 62
     7
 10
70.511964693110755
 20
301.24090386198191
 30
0.0
 11
69.75790219311078
 21
301.38747886198189
 31
0.0
  0
ARC
  5
1576
  8
0
  6
CONTINUOUS
 62
     7
 10
69.834225693110795
 20
301.78012986198189
 30
0.0
 40
0.4
 50
180.0
 51
258.99999999999898
  0
ARC
  5
1577
  8
0
  6
CONTINUOUS
 62
     7
 10
70.588288193110756
 20
301.63355486198191
 30
0.0
 40
0.4
 50
258.99999999999898
 51
270.0
  0
ARC
  5
1578
  8
0
  6
CONTINUOUS
 62
     7
 10
72.334225693110767
 20
310.43355186198193
 30
0.0
 40
0.4
 50
0.0
 51
90.0
  0
ARC
  5
1579
  8
0
  6
CONTINUOUS
 62
     7
 10
80.934221693110743
 20
319.03355086198189
 30
0.0
 40
2.0
 50
0.0
 51
90.0
  0
LINE
  5
157A
  8
0
  6
CONTINUOUS
 62
     7
 10
82.934221693110757
 20
310.43355186198193
 30
0.0
 11
82.934221693110757
 21
319.03355086198189
 31
0.0
  0
LINE
  5
157B
  8
0
  6
CONTINUOUS
 62
     7
 10
76.184225693110761
 20
319.03355086198189
 30
0.0
 11
76.184225693110761
 21
315.69777736198188
 31
0.0
  0
LINE
  5
157C
  8
0
  6
CONTINUOUS
 62
     7
 10
72.33422269311076
 20
321.03355086198189
 30
0.0
 11
80.934221693110743
 21
321.03355086198189
 31
0.0
  0
LINE
  5
157D
  8
0
  6
CONTINUOUS
 62
     7
 10
72.33422269311076
 20
319.03355086198189
 30
0.0
 11
76.184225693110761
 21
319.03355086198189
 31
0.0
  0
LINE
  5
157E
  8
0
  6
CONTINUOUS
 62
     7
 10
71.934222693110755
 20
319.43355086198193
 30
0.0
 11
71.934222693110755
 21
320.63355086198192
 31
0.0
  0
LINE
  5
157F
  8
0
  6
CONTINUOUS
 62
     7
 10
80.934221693110743
 20
314.28355486198188
 30
0.0
 11
77.598431693110754
 21
314.28355486198188
 31
0.0
  0
LINE
  5
1580
  8
0
  6
CONTINUOUS
 62
     7
 10
73.934225693110761
 20
310.61934936198179
 30
0.0
 11
77.598431693110754
 21
314.28355486198188
 31
0.0
  0
LINE
  5
1581
  8
0
  6
CONTINUOUS
 62
     7
 10
72.520004193110765
 20
312.03355486198188
 30
0.0
 11
76.184225693110761
 21
315.69777736198188
 31
0.0
  0
LINE
  5
1582
  8
0
  6
CONTINUOUS
 62
     7
 10
80.934221693110743
 20
310.43355186198193
 30
0.0
 11
80.934221693110743
 21
314.28355486198188
 31
0.0
  0
LINE
  5
1583
  8
0
  6
CONTINUOUS
 62
     7
 10
82.534221693110752
 20
310.03355186198189
 30
0.0
 11
81.334221693110763
 21
310.03355186198189
 31
0.0
  0
ARC
  5
1584
  8
0
  6
CONTINUOUS
 62
     7
 10
72.33422269311076
 20
320.63355086198192
 30
0.0
 40
0.4
 50
90.0
 51
180.0
  0
ARC
  5
1585
  8
0
  6
CONTINUOUS
 62
     7
 10
72.33422269311076
 20
319.43355086198193
 30
0.0
 40
0.4
 50
180.0
 51
270.0
  0
ARC
  5
1586
  8
0
  6
CONTINUOUS
 62
     7
 10
81.334221693110763
 20
310.43355186198193
 30
0.0
 40
0.4
 50
180.0
 51
270.0
  0
ARC
  5
1587
  8
0
  6
CONTINUOUS
 62
     7
 10
82.534221693110752
 20
310.43355186198193
 30
0.0
 40
0.4
 50
270.0
 51
0.0
  0
LINE
  5
1588
  8
0
  6
CONTINUOUS
 62
     7
 10
73.634225693110764
 20
306.03355586198188
 30
0.0
 11
73.867238193110765
 21
306.43714536198189
 31
0.0
  0
LINE
  5
1589
  8
0
  6
CONTINUOUS
 62
     7
 10
73.934225693110761
 20
310.61934936198179
 30
0.0
 11
73.934225693110761
 21
308.53355486198188
 31
0.0
  0
LINE
  5
158A
  8
0
  6
CONTINUOUS
 62
     7
 10
73.867238193110765
 20
306.93714536198189
 30
0.0
 11
73.685202193110769
 21
307.25244086198188
 31
0.0
  0
LINE
  5
158B
  8
0
  6
CONTINUOUS
 62
     7
 10
73.685202193110769
 20
307.25244086198188
 30
0.0
 11
73.934225693110761
 21
308.53355486198188
 31
0.0
  0
ARC
  5
158C
  8
0
  6
CONTINUOUS
 62
     7
 10
73.434225693110761
 20
306.68714536198189
 30
0.0
 40
0.5
 50
330.0
 51
30.000000000000011
  0
LINE
  5
158D
  8
0
  6
CONTINUOUS
 62
     7
 10
68.337814693110744
 20
311.9665673619819
 30
0.0
 11
67.934224693110778
 21
311.73355486198187
 31
0.0
  0
LINE
  5
158E
  8
0
  6
CONTINUOUS
 62
     7
 10
72.520004193110765
 20
312.03355486198188
 30
0.0
 11
70.434225693110761
 21
312.03355486198188
 31
0.0
  0
LINE
  5
158F
  8
0
  6
CONTINUOUS
 62
     7
 10
70.434225693110761
 20
312.03355486198188
 30
0.0
 11
69.153110693110776
 21
311.78453136198181
 31
0.0
  0
ARC
  5
1590
  8
0
  6
CONTINUOUS
 62
     7
 10
68.58781469311073
 20
311.53355486198188
 30
0.0
 40
0.5
 50
59.999999999998721
 51
120.00000000000109
  0
LINE
  5
1591
  8
0
  6
CONTINUOUS
 62
     7
 10
69.153110693110776
 20
311.78453136198181
 30
0.0
 11
68.837814693110758
 21
311.9665673619819
 31
0.0
  0
ARC
  5
1592
  8
0
  6
CONTINUOUS
 62
     7
 10
67.934225693110761
 20
306.03355486198188
 30
0.0
 40
3.399999999999999
 50
73.17355100000006
 51
106.8264489999998
  0
LINE
  5
1593
  8
0
  6
CONTINUOUS
 62
     7
 10
72.734225693110758
 20
310.43355186198193
 30
0.0
 11
72.734225693110758
 21
308.68761736198189
 31
0.0
  0
LINE
  5
1594
  8
0
  6
CONTINUOUS
 62
     7
 10
72.334225693110767
 20
310.8335518619819
 30
0.0
 11
70.588272693110767
 21
310.8335518619819
 31
0.0
  0
LINE
  5
1595
  8
0
  6
CONTINUOUS
 62
     7
 10
69.434225693110761
 20
310.28697986198188
 30
0.0
 11
69.434225693110761
 21
309.67086136198191
 31
0.0
  0
ARC
  5
1596
  8
0
  6
CONTINUOUS
 62
     7
 10
69.034225693110784
 20
309.67086136198191
 30
0.0
 40
0.4
 50
253.17355099999989
 51
0.0
  0
LINE
  5
1597
  8
0
  6
CONTINUOUS
 62
     7
 10
70.511949193110766
 20
310.82620236198193
 30
0.0
 11
69.75790219311078
 21
310.67963086198188
 31
0.0
  0
ARC
  5
1598
  8
0
  6
CONTINUOUS
 62
     7
 10
69.834225693110795
 20
310.28697986198188
 30
0.0
 40
0.4
 50
101.00000000000099
 51
180.0
  0
ARC
  5
1599
  8
0
  6
CONTINUOUS
 62
     7
 10
70.588272693110767
 20
310.43355186198193
 30
0.0
 40
0.4
 50
90.0
 51
101.00000000000099
  0
LINE
  5
159A
  8
0
  6
CONTINUOUS
 62
     7
 10
72.187650693110754
 20
307.53355486198188
 30
0.0
 11
71.571532193110755
 21
307.53355486198188
 31
0.0
  0
ARC
  5
159B
  8
0
  6
CONTINUOUS
 62
     7
 10
71.571532193110755
 20
307.13355486198191
 30
0.0
 40
0.4
 50
90.0
 51
196.8264489999998
  0
LINE
  5
159C
  8
0
  6
CONTINUOUS
 62
     7
 10
72.726876693110768
 20
308.61129386198189
 30
0.0
 11
72.580301693110755
 21
307.85723136198192
 31
0.0
  0
ARC
  5
159D
  8
0
  6
CONTINUOUS
 62
     7
 10
72.187650693110754
 20
307.93355486198192
 30
0.0
 40
0.4
 50
270.0
 51
348.99999999999761
  0
ARC
  5
159E
  8
0
  6
CONTINUOUS
 62
     7
 10
72.334225693110767
 20
308.68761736198189
 30
0.0
 40
0.4
 50
348.99999999999761
 51
0.0
  0
ARC
  5
159F
  8
0
  6
CONTINUOUS
 62
     7
 10
54.934229693110758
 20
319.03355086198189
 30
0.0
 40
2.0
 50
90.0
 51
180.0
  0
LINE
  5
15A0
  8
0
  6
CONTINUOUS
 62
     7
 10
63.534228693110776
 20
321.03355086198189
 30
0.0
 11
54.934229693110758
 21
321.03355086198189
 31
0.0
  0
LINE
  5
15A1
  8
0
  6
CONTINUOUS
 62
     7
 10
54.934229693110758
 20
314.28355486198188
 30
0.0
 11
58.270003193110767
 21
314.28355486198188
 31
0.0
  0
LINE
  5
15A2
  8
0
  6
CONTINUOUS
 62
     7
 10
52.93422969311078
 20
310.43355186198193
 30
0.0
 11
52.93422969311078
 21
319.03355086198189
 31
0.0
  0
LINE
  5
15A3
  8
0
  6
CONTINUOUS
 62
     7
 10
54.934229693110758
 20
310.43355186198193
 30
0.0
 11
54.934229693110758
 21
314.28355486198188
 31
0.0
  0
LINE
  5
15A4
  8
0
  6
CONTINUOUS
 62
     7
 10
54.534229693110767
 20
310.03355186198189
 30
0.0
 11
53.334229693110792
 21
310.03355186198189
 31
0.0
  0
LINE
  5
15A5
  8
0
  6
CONTINUOUS
 62
     7
 10
59.684225693110761
 20
319.03355086198189
 30
0.0
 11
59.684225693110761
 21
315.69776086198192
 31
0.0
  0
LINE
  5
15A6
  8
0
  6
CONTINUOUS
 62
     7
 10
63.348431193110777
 20
312.03355486198188
 30
0.0
 11
59.684225693110761
 21
315.69776086198192
 31
0.0
  0
LINE
  5
15A7
  8
0
  6
CONTINUOUS
 62
     7
 10
61.934225693110761
 20
310.61933336198189
 30
0.0
 11
58.270003193110767
 21
314.28355486198188
 31
0.0
  0
LINE
  5
15A8
  8
0
  6
CONTINUOUS
 62
     7
 10
63.534228693110776
 20
319.03355086198189
 30
0.0
 11
59.684225693110761
 21
319.03355086198189
 31
0.0
  0
LINE
  5
15A9
  8
0
  6
CONTINUOUS
 62
     7
 10
63.934228693110803
 20
320.63355086198192
 30
0.0
 11
63.934228693110803
 21
319.43355086198193
 31
0.0
  0
ARC
  5
15AA
  8
0
  6
CONTINUOUS
 62
     7
 10
53.334229693110792
 20
310.43355186198193
 30
0.0
 40
0.4
 50
180.0
 51
270.0
  0
ARC
  5
15AB
  8
0
  6
CONTINUOUS
 62
     7
 10
54.534229693110767
 20
310.43355186198193
 30
0.0
 40
0.4
 50
270.0
 51
0.0
  0
ARC
  5
15AC
  8
0
  6
CONTINUOUS
 62
     7
 10
63.534228693110776
 20
319.43355086198193
 30
0.0
 40
0.4
 50
270.0
 51
0.0
  0
ARC
  5
15AD
  8
0
  6
CONTINUOUS
 62
     7
 10
63.534228693110776
 20
320.63355086198192
 30
0.0
 40
0.4
 50
0.0
 51
90.0
  0
LINE
  5
15AE
  8
0
  6
CONTINUOUS
 62
     7
 10
67.934224693110778
 20
311.73355486198187
 30
0.0
 11
67.530634693110784
 21
311.9665673619819
 31
0.0
  0
LINE
  5
15AF
  8
0
  6
CONTINUOUS
 62
     7
 10
63.348431193110777
 20
312.03355486198188
 30
0.0
 11
65.434225693110761
 21
312.03355486198188
 31
0.0
  0
LINE
  5
15B0
  8
0
  6
CONTINUOUS
 62
     7
 10
67.030634693110784
 20
311.9665673619819
 30
0.0
 11
66.715339193110779
 21
311.78453136198181
 31
0.0
  0
LINE
  5
15B1
  8
0
  6
CONTINUOUS
 62
     7
 10
66.715339193110779
 20
311.78453136198181
 30
0.0
 11
65.434225693110761
 21
312.03355486198188
 31
0.0
  0
ARC
  5
15B2
  8
0
  6
CONTINUOUS
 62
     7
 10
67.280634693110798
 20
311.53355486198188
 30
0.0
 40
0.5
 50
59.999999999998721
 51
120.00000000000109
  0
LINE
  5
15B3
  8
0
  6
CONTINUOUS
 62
     7
 10
62.0012131931108
 20
306.4371433619819
 30
0.0
 11
62.234225693110787
 21
306.03355386198189
 31
0.0
  0
LINE
  5
15B4
  8
0
  6
CONTINUOUS
 62
     7
 10
61.934225693110761
 20
310.61933336198189
 30
0.0
 11
61.934225693110761
 21
308.53355486198188
 31
0.0
  0
LINE
  5
15B5
  8
0
  6
CONTINUOUS
 62
     7
 10
61.934225693110761
 20
308.53355486198188
 30
0.0
 11
62.183249193110782
 21
307.25243986198188
 31
0.0
  0
ARC
  5
15B6
  8
0
  6
CONTINUOUS
 62
     7
 10
62.434225693110761
 20
306.6871433619819
 30
0.0
 40
0.5
 50
149.99999999999989
 51
210.0
  0
LINE
  5
15B7
  8
0
  6
CONTINUOUS
 62
     7
 10
62.183249193110782
 20
307.25243986198188
 30
0.0
 11
62.0012131931108
 21
306.9371433619819
 31
0.0
  0
ARC
  5
15B8
  8
0
  6
CONTINUOUS
 62
     7
 10
67.934225693110761
 20
306.03355486198188
 30
0.0
 40
3.399999999999999
 50
163.1735510000002
 51
196.8264489999998
  0
LINE
  5
15B9
  8
0
  6
CONTINUOUS
 62
     7
 10
63.534228693110776
 20
310.8335548619819
 30
0.0
 11
65.280163193110766
 21
310.8335548619819
 31
0.0
  0
LINE
  5
15BA
  8
0
  6
CONTINUOUS
 62
     7
 10
63.134228693110792
 20
310.43355486198192
 30
0.0
 11
63.134228693110792
 21
308.68760186198188
 31
0.0
  0
LINE
  5
15BB
  8
0
  6
CONTINUOUS
 62
     7
 10
63.680800693110761
 20
307.53355486198188
 30
0.0
 11
64.296919193110767
 21
307.53355486198188
 31
0.0
  0
ARC
  5
15BC
  8
0
  6
CONTINUOUS
 62
     7
 10
64.296919193110767
 20
307.13355486198191
 30
0.0
 40
0.4
 50
343.1735510000002
 51
90.0
  0
LINE
  5
15BD
  8
0
  6
CONTINUOUS
 62
     7
 10
63.141577693110762
 20
308.61127786198188
 30
0.0
 11
63.288149693110739
 21
307.85723136198192
 31
0.0
  0
ARC
  5
15BE
  8
0
  6
CONTINUOUS
 62
     7
 10
63.680800693110761
 20
307.93355486198192
 30
0.0
 40
0.4
 50
190.99999999999901
 51
270.0
  0
ARC
  5
15BF
  8
0
  6
CONTINUOUS
 62
     7
 10
63.534228693110776
 20
308.68760186198188
 30
0.0
 40
0.4
 50
180.0
 51
190.99999999999901
  0
LINE
  5
15C0
  8
0
  6
CONTINUOUS
 62
     7
 10
66.434225693110761
 20
310.28697986198188
 30
0.0
 11
66.434225693110761
 21
309.67086136198191
 31
0.0
  0
ARC
  5
15C1
  8
0
  6
CONTINUOUS
 62
     7
 10
66.834225693110767
 20
309.67086136198191
 30
0.0
 40
0.4
 50
180.0
 51
286.82644899999991
  0
LINE
  5
15C2
  8
0
  6
CONTINUOUS
 62
     7
 10
65.356486693110782
 20
310.82620586198192
 30
0.0
 11
66.110549193110785
 21
310.67963086198188
 31
0.0
  0
ARC
  5
15C3
  8
0
  6
CONTINUOUS
 62
     7
 10
66.034225693110756
 20
310.28697986198188
 30
0.0
 40
0.4
 50
0.0
 51
78.999999999999005
  0
ARC
  5
15C4
  8
0
  6
CONTINUOUS
 62
     7
 10
65.280163193110766
 20
310.43355486198192
 30
0.0
 40
0.4
 50
78.999999999999005
 51
90.0
  0
ARC
  5
15C5
  8
0
  6
CONTINUOUS
 62
     7
 10
56.234225693110773
 20
294.3335548619819
 30
0.0
 40
1.8999999999999999
 50
109.9999999999992
 51
339.99999999999989
  0
LINE
  5
15C6
  8
0
  6
CONTINUOUS
 62
     7
 10
58.386374193110782
 20
294.6913053619819
 30
0.0
 11
58.019641693110771
 21
293.68371636198191
 31
0.0
  0
LINE
  5
15C7
  8
0
  6
CONTINUOUS
 62
     7
 10
56.59197619311076
 20
296.48570286198191
 30
0.0
 11
55.584387193110778
 21
296.11897086198189
 31
0.0
  0
ARC
  5
15C8
  8
0
  6
CONTINUOUS
 62
     7
 10
57.070804193110767
 20
295.17013336198198
 30
0.0
 40
1.399999999999999
 50
339.99999999999989
 51
109.9999999999992
  0
ARC
  5
15C9
  8
0
  6
CONTINUOUS
 62
     7
 10
56.234225693110773
 20
317.73355486198187
 30
0.0
 40
1.8999999999999999
 50
20.000000000000039
 51
250.0000000000008
  0
LINE
  5
15CA
  8
0
  6
CONTINUOUS
 62
     7
 10
58.386374193110782
 20
317.37580436198192
 30
0.0
 11
58.019641693110771
 21
318.38339286198192
 31
0.0
  0
LINE
  5
15CB
  8
0
  6
CONTINUOUS
 62
     7
 10
56.59197619311076
 20
315.58140636198192
 30
0.0
 11
55.584387193110778
 21
315.94813886198187
 31
0.0
  0
ARC
  5
15CC
  8
0
  6
CONTINUOUS
 62
     7
 10
57.070804193110767
 20
316.8969763619819
 30
0.0
 40
1.399999999999999
 50
250.0000000000008
 51
20.000000000000039
  0
ARC
  5
15CD
  8
0
  6
CONTINUOUS
 62
     7
 10
79.634225693110764
 20
294.3335548619819
 30
0.0
 40
1.8999999999999999
 50
200.0
 51
70.000000000000767
  0
LINE
  5
15CE
  8
0
  6
CONTINUOUS
 62
     7
 10
77.482077193110754
 20
294.6913053619819
 30
0.0
 11
77.848809693110766
 21
293.68371636198191
 31
0.0
  0
LINE
  5
15CF
  8
0
  6
CONTINUOUS
 62
     7
 10
79.276475193110755
 20
296.48570286198191
 30
0.0
 11
80.284064193110765
 21
296.11897086198189
 31
0.0
  0
ARC
  5
15D0
  8
0
  6
CONTINUOUS
 62
     7
 10
78.797647193110762
 20
295.17013336198198
 30
0.0
 40
1.399999999999999
 50
70.000000000000767
 51
200.0
  0
ARC
  5
15D1
  8
0
  6
CONTINUOUS
 62
     7
 10
79.634225693110764
 20
317.73355486198187
 30
0.0
 40
1.8999999999999999
 50
289.9999999999992
 51
159.99999999999989
  0
LINE
  5
15D2
  8
0
  6
CONTINUOUS
 62
     7
 10
77.482077193110754
 20
317.37580436198192
 30
0.0
 11
77.848809693110766
 21
318.38339286198192
 31
0.0
  0
LINE
  5
15D3
  8
0
  6
CONTINUOUS
 62
     7
 10
79.276475193110755
 20
315.58140636198192
 30
0.0
 11
80.284064193110765
 21
315.94813886198187
 31
0.0
  0
ARC
  5
15D4
  8
0
  6
CONTINUOUS
 62
     7
 10
78.797647193110762
 20
316.8969763619819
 30
0.0
 40
1.399999999999999
 50
159.99999999999989
 51
289.9999999999992
  0
LINE
  5
1DB5
  8
CENTER
  6
CENTER
 62
     1
 10
67.934225693110889
 20
288.03355886198182
 30
0.0
 11
67.934225693110719
 21
324.03355086198189
 31
0.0
  0
LINE
  5
1DB7
  8
CENTER
  6
CENTER
 62
     1
 10
85.934221693110885
 20
306.033554861982
 30
0.0
 11
49.934229693110801
 21
306.03355486198183
 31
0.0
  0
TEXT
  5
2F9A
  8
0
  6
CONTINUOUS
 62
     7
 10
-3.6426338151191731
 20
256.37600722118958
 30
0.0
 40
3.2000000000000002
  1
EFS6-3030
  0
TEXT
  5
2F9B
  8
0
  6
CONTINUOUS
 62
     7
 10
-3.6426338151191731
 20
250.91474736398641
 30
0.0
 40
3.2000000000000002
  1
EFS6303
  0
VIEWPORT
  5
B50
 67
     1
  8
0
  6
CONTINUOUS
 62
     7
 10
5.6137499593326776
 20
3.9021412998248972
 30
0.0
 40
10.741874315065679
 41
6.9976677010157138
 68
     1
 69
     1
1001
ACAD
1000
MVIEW
1002
{
1070
    16
1010
0.0
1020
0.0
1030
0.0
1010
0.0
1020
0.0
1030
1.0
1040
0.0
1040
6.9976677010157138
1040
5.6137499593326776
1040
3.9021412998248972
1040
50.0
1040
0.0
1040
0.0
1070
     0
1070
   100
1070
     1
1070
     1
1070
     0
1070
     0
1070
     0
1070
     0
1040
0.0
1040
0.0
1040
0.0
1040
10.0
1040
10.0
1040
10.0
1040
10.0
1070
     0
1002
{
1002
}
1002
}
  0
VIEWPORT
  5
B52
 67
     1
  8
0
  6
CONTINUOUS
 62
     7
 10
5.613749965908017
 20
3.902083250481311
 30
0.0
 40
8.9819999454528343
 41
6.243333200770099
 68
     2
 69
     2
1001
ACAD
1000
MVIEW
1002
{
1070
    16
1010
148.5
1020
105.0
1030
0.0
1010
0.0
1020
0.0
1030
442.63470846773748
1040
0.0
1040
102.2276509136148
1040
-100.0378027381437
1040
196.58102096983311
1040
50.0
1040
0.0
1040
0.0
1070
     0
1070
   100
1070
     1
1070
     1
1070
     0
1070
     0
1070
     0
1070
     0
1040
0.0
1040
0.0
1040
0.0
1040
10.0
1040
10.0
1040
10.0
1040
10.0
1070
     0
1002
{
1002
}
1002
}
  0
ENDSEC
  0
EOF
